HIERARCHY
ROOT Hips
{
	OFFSET -0.001795 -0.223333 0.028219
	CHANNELS 6 Xposition Yposition Zposition Zrotation Yrotation Xrotation 
	JOINT LeftUpLeg
	{
		OFFSET 0.069520 -0.091406 -0.006815
		CHANNELS 3 Zrotation Yrotation Xrotation
		JOINT LeftLeg
		{
			OFFSET 0.034277 -0.375199 -0.004496
			CHANNELS 3 Zrotation Yrotation Xrotation
			JOINT LeftFoot
			{
				OFFSET -0.013596 -0.397961 -0.043693
				CHANNELS 3 Zrotation Yrotation Xrotation
				JOINT LeftToe
				{
					OFFSET 0.026358 -0.055791 0.119288
					CHANNELS 3 Zrotation Yrotation Xrotation
					End Site
					{
						OFFSET 0.000000 0.000000 0.000000
					}
				}
			}
		}
	}
	JOINT RightUpLeg
	{
		OFFSET -0.067670 -0.090522 -0.004320
		CHANNELS 3 Zrotation Yrotation Xrotation
		JOINT RightLeg
		{
			OFFSET -0.038290 -0.382569 -0.008850
			CHANNELS 3 Zrotation Yrotation Xrotation
			JOINT RightFoot
			{
				OFFSET 0.015774 -0.398415 -0.042312
				CHANNELS 3 Zrotation Yrotation Xrotation
				JOINT RightToe
				{
					OFFSET -0.025372 -0.048144 0.123348
					CHANNELS 3 Zrotation Yrotation Xrotation
					End Site
					{
						OFFSET 0.000000 0.000000 0.000000
					}
				}
			}
		}
	}
	JOINT Spine
	{
		OFFSET -0.002533 0.108963 -0.026696
		CHANNELS 3 Zrotation Yrotation Xrotation
		JOINT Spine1
		{
			OFFSET 0.005487 0.135180 0.001092
			CHANNELS 3 Zrotation Yrotation Xrotation
			JOINT Spine2
			{
				OFFSET 0.001457 0.052922 0.025425
				CHANNELS 3 Zrotation Yrotation Xrotation
				JOINT Neck
				{
					OFFSET -0.002778 0.213870 -0.042857
					CHANNELS 3 Zrotation Yrotation Xrotation
					JOINT Head
					{
						OFFSET 0.005152 0.064970 0.051349
						CHANNELS 3 Zrotation Yrotation Xrotation
						End Site
						{
							OFFSET 0.000000 0.000000 0.000000
						}
					}
				}
				JOINT LeftShoulder
				{
					OFFSET 0.078845 0.121749 -0.034090
					CHANNELS 3 Zrotation Yrotation Xrotation
					JOINT LeftArm
					{
						OFFSET 0.090977 0.030469 -0.008868
						CHANNELS 3 Zrotation Yrotation Xrotation
						JOINT LeftForeArm
						{
							OFFSET 0.259612 -0.012772 -0.027456
							CHANNELS 3 Zrotation Yrotation Xrotation
							JOINT LeftHand
							{
								OFFSET 0.249234 0.008986 -0.001171
								CHANNELS 3 Zrotation Yrotation Xrotation
								End Site
								{
									OFFSET 0.000000 0.000000 0.000000
								}
							}
						}
					}
				}
				JOINT RightShoulder
				{
					OFFSET -0.081759 0.118833 -0.038615
					CHANNELS 3 Zrotation Yrotation Xrotation
					JOINT RightArm
					{
						OFFSET -0.096012 0.032551 -0.009143
						CHANNELS 3 Zrotation Yrotation Xrotation
						JOINT RightForeArm
						{
							OFFSET -0.253742 -0.013329 -0.021401
							CHANNELS 3 Zrotation Yrotation Xrotation
							JOINT RightHand
							{
								OFFSET -0.255298 0.007772 -0.005559
								CHANNELS 3 Zrotation Yrotation Xrotation
								End Site
								{
									OFFSET 0.000000 0.000000 0.000000
								}
							}
						}
					}
				}
			}
		}
	}
}
MOTION
Frames: 9
Frame Time: 0.050000
0.000000 0.950534 0.000000 2.709270 16.458024 2.419814 5.665465 -0.598899 -7.336736 -3.950291 0.089750 9.435809 2.924419 9.993425 9.231222 0.000000 0.000000 0.000000 -6.296320 0.091100 -4.342077 2.886953 -0.444253 5.338907 -4.406410 -11.351595 6.047143 0.000000 0.000000 0.000000 9.253313 -1.650552 10.389411 -7.454682 2.580426 -23.696653 0.210540 3.445140 28.264342 12.636448 -3.618407 -26.824590 0.000000 0.000000 0.000000 -13.795645 -1.851545 -2.418074 -52.558996 -3.673327 -7.010968 -25.024228 -32.831238 7.804468 0.000000 0.000000 0.000000 16.553500 -8.681754 -2.834761 54.214955 11.867633 -2.504007 13.972039 34.486864 7.394440 0.000000 0.000000 0.000000 
0.004581 0.949385 -0.003186 3.029068 16.294521 2.848378 5.690978 -0.607699 -7.442533 -4.166004 0.128876 9.309626 2.613716 9.582811 9.484521 0.000000 0.000000 0.000000 -7.394466 0.047749 -5.066032 3.465200 -0.578134 6.482320 -3.989250 -10.412960 5.719191 0.000000 0.000000 0.000000 9.927535 -1.637013 9.656023 -7.593587 2.633387 -23.302462 0.373273 3.662810 28.419788 13.468802 -4.066032 -27.030820 0.000000 0.000000 0.000000 -11.498541 -0.247717 -2.621434 -54.546396 -3.939673 -7.487667 -26.506510 -33.415410 8.384574 0.000000 0.000000 0.000000 15.157826 -9.183231 -3.150526 53.735200 11.370291 -2.612193 16.754158 33.581395 8.048629 0.000000 0.000000 0.000000 
0.010975 0.949417 -0.007657 3.038616 15.521324 2.247538 5.915997 -0.561373 -6.863236 -4.131150 0.127016 9.753933 2.044500 8.000584 7.955352 0.000000 0.000000 0.000000 -7.450350 0.061606 -5.528475 2.786440 -0.435419 7.163005 -3.721698 -9.901021 6.912025 0.000000 0.000000 0.000000 10.355637 -1.783827 10.426495 -7.727437 2.619831 -23.926837 1.188923 4.156469 29.575153 13.848331 -4.474542 -26.607120 0.000000 0.000000 0.000000 -12.248853 -0.603111 -2.602542 -53.067672 -3.896233 -7.348781 -28.333891 -32.394332 8.674175 0.000000 0.000000 0.000000 14.768188 -9.852901 -3.478604 53.685988 11.260144 -2.845698 16.367661 34.563494 8.328990 0.000000 0.000000 0.000000 
0.019712 0.948978 -0.012852 3.434395 14.782475 2.070712 5.320874 -0.553934 -6.877550 -3.700078 0.069617 9.926649 1.360207 6.545876 7.345405 0.000000 0.000000 0.000000 -8.236699 0.011997 -5.355685 2.566835 -0.379019 7.358975 -2.879254 -8.156597 7.206844 0.000000 0.000000 0.000000 10.953986 -1.942984 11.004446 -8.397276 2.755886 -23.931755 2.042917 4.375050 29.715912 14.580679 -4.630255 -28.017843 0.000000 0.000000 0.000000 -11.112464 0.968551 -3.002154 -53.685821 -3.996940 -7.510914 -30.567871 -32.868054 9.484451 0.000000 0.000000 0.000000 12.118077 -11.111075 -4.247275 54.135887 10.634386 -2.808368 19.434616 34.560600 9.433266 0.000000 0.000000 0.000000 
0.030646 0.948566 -0.018576 3.643859 12.926082 1.906787 4.648333 -0.533946 -6.746028 -2.963584 -0.018655 10.083123 0.574984 4.515615 6.157413 0.000000 0.000000 0.000000 -9.073915 0.010542 -6.430656 2.055984 -0.253395 8.920855 -2.252976 -6.911520 6.920819 0.000000 0.000000 0.000000 10.860640 -2.082399 12.180951 -7.362089 2.477840 -24.617802 1.971829 4.994343 30.125662 14.971450 -4.982406 -27.980286 0.000000 0.000000 0.000000 -10.735619 1.181043 -2.903066 -53.002190 -3.811821 -7.542942 -33.882030 -33.665101 10.825177 0.000000 0.000000 0.000000 12.245159 -11.810122 -4.660670 52.954165 10.207928 -3.186935 21.092098 36.692813 10.781579 0.000000 0.000000 0.000000 
0.043718 0.947653 -0.024215 3.471164 10.403374 2.087665 4.242891 -0.523685 -6.760594 -1.950365 -0.154178 10.274570 0.127466 3.090752 5.199436 0.000000 0.000000 0.000000 -9.419014 0.076968 -7.750853 1.061070 0.009717 10.302941 -0.896568 -3.948734 5.988071 0.000000 0.000000 0.000000 11.092888 -2.080093 12.237519 -7.079685 2.402265 -24.447840 2.230502 5.452826 30.174175 15.172015 -5.193520 -28.261771 0.000000 0.000000 0.000000 -9.683226 1.816993 -2.774495 -53.034022 -3.885168 -7.566026 -35.333038 -34.471799 11.743419 0.000000 0.000000 0.000000 11.134030 -12.315093 -5.034130 53.102437 9.603837 -3.359774 22.721399 37.986201 11.764646 0.000000 0.000000 0.000000 
0.058759 0.946709 -0.029883 3.462654 7.233380 1.682672 3.150911 -0.459860 -5.799400 -1.115449 -0.230087 9.755331 -0.146986 2.185722 4.759723 0.000000 0.000000 0.000000 -10.138099 0.121209 -8.742593 0.475515 0.217109 11.473327 0.538573 -0.969605 5.847892 0.000000 0.000000 0.000000 11.002854 -2.098948 12.993531 -6.591009 2.244997 -24.908696 2.483339 5.717831 30.476062 15.340179 -5.628135 -27.996614 0.000000 0.000000 0.000000 -8.800247 2.083380 -2.468889 -53.684797 -3.993262 -7.662187 -35.276249 -34.797444 12.170079 0.000000 0.000000 0.000000 11.000222 -12.580980 -5.319053 52.015607 9.681460 -3.482473 23.668629 39.430712 12.469439 0.000000 0.000000 0.000000 
0.075978 0.945248 -0.036392 3.159886 4.403149 1.147463 2.349702 -0.422572 -5.231327 -0.824517 -0.235227 9.592213 0.007071 1.790092 3.588292 0.000000 0.000000 0.000000 -10.001303 0.223974 -9.843224 -0.944193 0.634464 12.850567 1.760244 1.687672 5.509421 0.000000 0.000000 0.000000 11.032600 -2.188307 14.135239 -5.905436 2.066526 -24.853799 2.035422 5.951247 30.343871 15.295622 -5.867855 -27.785546 0.000000 0.000000 0.000000 -8.375593 1.646130 -2.009182 -53.990104 -4.409359 -7.475246 -34.773263 -35.839944 12.675491 0.000000 0.000000 0.000000 11.408050 -12.531113 -5.471775 50.914543 10.473322 -3.244523 22.815358 40.003974 12.056007 0.000000 0.000000 0.000000 
0.094795 0.943922 -0.044827 2.925470 1.011317 0.963479 1.184956 -0.427380 -5.006564 -0.912594 -0.167168 9.580202 0.761181 2.787796 2.754295 0.000000 0.000000 0.000000 -10.447039 0.318972 -11.405866 -1.847890 0.927537 13.228895 3.084532 4.176662 5.966941 0.000000 0.000000 0.000000 10.844753 -2.234792 15.353630 -5.830332 1.998462 -25.122215 2.283425 5.907054 30.461114 15.428752 -6.264871 -27.846862 0.000000 0.000000 0.000000 -8.133547 1.376633 -1.602555 -54.589446 -5.222938 -7.141476 -33.269669 -36.631531 12.859980 0.000000 0.000000 0.000000 12.235447 -12.301576 -5.653505 50.182571 11.290982 -3.054245 21.275161 40.744051 11.353562 0.000000 0.000000 0.000000 
